<svg width="97" height="98" viewBox="0 0 97 98" fill="none" xmlns="http://www.w3.org/2000/svg">
<path fill-rule="evenodd" clip-rule="evenodd" d="M30 0C13.4315 0 0 13.4315 0 30V68C0 84.5685 13.4315 98 30 98H67C83.5685 98 97 84.5685 97 68V30C97 13.4315 83.5685 0 67 0H30ZM65.8072 51.351C65.8072 46.7235 68.3373 42.5588 72.4337 40.1294C69.6627 36.3118 65.0843 34.1137 60.2651 34.2294C57.6117 34.2294 55.2011 35.1231 53.1741 35.8746C51.7035 36.4198 50.4348 36.8902 49.4217 36.8902C48.3083 36.8902 47.0316 36.3973 45.6018 35.8454C43.7825 35.1431 41.7154 34.3451 39.4217 34.3451C31.7108 34.3451 24 40.4765 24 51.9294C24.1205 58.9863 26.4096 65.6961 30.3855 71.4804C33.3976 75.6451 36.0482 79 39.9036 79C41.7361 79 43.0786 78.4512 44.4875 77.8753C46.0429 77.2394 47.6791 76.5706 50.1446 76.5706C52.6521 76.5706 54.1811 77.197 55.648 77.7979C57.0004 78.3519 58.3 78.8843 60.2651 78.8843C64.3615 78.8843 67.1325 75.1824 69.7831 71.5961C71.5904 69.051 73.0361 66.2745 74 63.2667C69.0602 61.3 65.8072 56.5569 65.8072 51.351ZM61.3494 21.1569C61.2289 24.1647 60.1446 27.0569 58.0964 29.3706C56.0482 31.8 53.0361 33.4196 49.7831 33.651C49.6627 33.651 49.512 33.6221 49.3614 33.5931C49.2108 33.5642 49.0602 33.5353 48.9398 33.5353C48.8193 33.1882 48.8193 32.8412 48.8193 32.4941C48.9398 29.4863 50.1446 26.7098 52.1928 24.5118C54.4819 21.9667 57.7349 20.3471 61.2289 20C61.3494 20.3471 61.3494 20.8098 61.3494 21.1569Z" fill="#1ED760"/>
</svg>
