<svg width="168" height="169" viewBox="0 0 168 169" fill="none" xmlns="http://www.w3.org/2000/svg">
<g filter="url(#filter0_d_13_4)">
<path fill-rule="evenodd" clip-rule="evenodd" d="M65.3 5.3C48.7315 5.3 35.3 18.7315 35.3 35.3V73.3C35.3 89.8685 48.7315 103.3 65.3001 103.3H102.3C118.869 103.3 132.3 89.8685 132.3 73.3V35.3C132.3 18.7315 118.869 5.3 102.3 5.3H65.3ZM101.107 56.651C101.107 52.0235 103.637 47.8588 107.734 45.4294C104.963 41.6118 100.384 39.4137 95.5651 39.5294C92.9117 39.5294 90.5012 40.4231 88.4742 41.1746C87.0036 41.7198 85.7349 42.1902 84.7217 42.1902C83.6083 42.1902 82.3316 41.6973 80.9018 41.1454C79.0826 40.4431 77.0155 39.6451 74.7217 39.6451C67.0109 39.6451 59.3 45.7765 59.3 57.2294C59.4205 64.2863 61.7097 70.9961 65.6856 76.7804C68.6976 80.9451 71.3482 84.3 75.2037 84.3C77.0361 84.3 78.3787 83.7512 79.7875 83.1753C81.3429 82.5395 82.9791 81.8706 85.4446 81.8706C87.9521 81.8706 89.4811 82.497 90.948 83.0979C92.3004 83.6519 93.6001 84.1843 95.5651 84.1843C99.6615 84.1843 102.433 80.4824 105.083 76.8961C106.89 74.351 108.336 71.5745 109.3 68.5667C104.36 66.6 101.107 61.8569 101.107 56.651ZM96.6494 26.4569C96.529 29.4647 95.4446 32.3569 93.3964 34.6706C91.3482 37.1 88.3362 38.7196 85.0832 38.951C84.9627 38.951 84.8121 38.9221 84.6615 38.8931C84.5109 38.8642 84.3603 38.8353 84.2398 38.8353C84.1193 38.4882 84.1193 38.1412 84.1193 37.7941C84.2398 34.7863 85.4446 32.0098 87.4928 29.8118C89.782 27.2667 93.035 25.6471 96.529 25.3C96.6494 25.6471 96.6494 26.1098 96.6494 26.4569Z" fill="#1181F1"/>
</g>
<defs>
<filter id="filter0_d_13_4" x="4.95911e-05" y="3.8147e-06" width="167.6" height="168.6" filterUnits="userSpaceOnUse" color-interpolation-filters="sRGB">
<feFlood flood-opacity="0" result="BackgroundImageFix"/>
<feColorMatrix in="SourceAlpha" type="matrix" values="0 0 0 0 0 0 0 0 0 0 0 0 0 0 0 0 0 0 127 0" result="hardAlpha"/>
<feOffset dy="30"/>
<feGaussianBlur stdDeviation="17.65"/>
<feComposite in2="hardAlpha" operator="out"/>
<feColorMatrix type="matrix" values="0 0 0 0 0.254583 0 0 0 0 0.452292 0 0 0 0 0.65 0 0 0 0.15 0"/>
<feBlend mode="normal" in2="BackgroundImageFix" result="effect1_dropShadow_13_4"/>
<feBlend mode="normal" in="SourceGraphic" in2="effect1_dropShadow_13_4" result="shape"/>
</filter>
</defs>
</svg>
