<svg width="168" height="169" viewBox="0 0 168 169" fill="none" xmlns="http://www.w3.org/2000/svg">
<g filter="url(#filter0_d_1_84)">
<path fill-rule="evenodd" clip-rule="evenodd" d="M35.3 35.3C35.3 18.7315 48.7314 5.30005 65.3 5.30005H102.3C118.869 5.30005 132.3 18.7315 132.3 35.3V73.3C132.3 89.8686 118.869 103.3 102.3 103.3H65.3C48.7314 103.3 35.3 89.8686 35.3 73.3V35.3ZM118.34 54.8466C118.34 52.3127 118.112 49.8762 117.69 47.5372H84.0347V61.36H103.266C102.438 65.8268 99.9203 69.6114 96.1357 72.1453L96.1357 72.1453C92.9358 74.2893 88.8426 75.5563 84.0347 75.5563C74.7275 75.5563 66.8497 69.2703 64.0396 60.8239H64.0395C63.3248 58.6799 62.9187 56.3897 62.9187 54.0345C62.9187 51.6792 63.3248 49.389 64.0395 47.2449V47.2448L64.0396 47.2449C66.8497 38.7986 74.7275 32.5126 84.0347 32.5126C89.2811 32.5126 93.9916 34.3155 97.695 37.8565L107.944 27.6072C101.756 21.841 93.6667 18.3 84.0347 18.3C70.0658 18.3 57.981 26.3078 52.1011 37.9864L52.1009 37.9864C49.5995 42.966 48.2979 48.4619 48.3001 54.0345C48.3001 59.8007 49.6807 65.2583 52.1009 70.0825L52.1011 70.0824C57.981 81.7611 70.0658 89.7689 84.0347 89.7689C93.683 89.7689 101.772 86.569 107.684 81.1114L107.684 81.1114C114.442 74.8904 118.34 65.7293 118.34 54.8466Z" fill="#1181F1"/>
</g>
<defs>
<filter id="filter0_d_1_84" x="-1.14441e-05" y="4.95911e-05" width="167.6" height="168.6" filterUnits="userSpaceOnUse" color-interpolation-filters="sRGB">
<feFlood flood-opacity="0" result="BackgroundImageFix"/>
<feColorMatrix in="SourceAlpha" type="matrix" values="0 0 0 0 0 0 0 0 0 0 0 0 0 0 0 0 0 0 127 0" result="hardAlpha"/>
<feOffset dy="30"/>
<feGaussianBlur stdDeviation="17.65"/>
<feComposite in2="hardAlpha" operator="out"/>
<feColorMatrix type="matrix" values="0 0 0 0 0.254583 0 0 0 0 0.452292 0 0 0 0 0.65 0 0 0 0.15 0"/>
<feBlend mode="normal" in2="BackgroundImageFix" result="effect1_dropShadow_1_84"/>
<feBlend mode="normal" in="SourceGraphic" in2="effect1_dropShadow_1_84" result="shape"/>
</filter>
</defs>
</svg>
