<svg width="140" height="45" viewBox="0 0 140 45" fill="none" xmlns="http://www.w3.org/2000/svg">
<path d="M34.5567 19.6644C27.5577 15.4182 16.013 15.0278 9.33163 17.0994C8.25866 17.4318 7.1241 16.8131 6.79899 15.717C6.47388 14.6204 7.07894 13.4621 8.15261 13.1289C15.8224 10.7503 28.5722 11.2099 36.6296 16.0961C37.5949 16.6812 37.9115 17.9544 37.3392 18.939C36.7668 19.9247 35.5194 20.2497 34.5567 19.6644ZM34.3274 25.9536C33.8366 26.7677 32.7948 27.0228 31.9991 26.5232C26.164 22.859 17.2663 21.7976 10.363 23.9382C9.46775 24.2146 8.52219 23.699 8.25036 22.7861C7.98053 21.8715 8.48553 20.9073 9.37913 20.6292C17.2653 18.1846 27.0687 19.3687 33.7705 23.5762C34.5662 24.0768 34.8167 25.1416 34.3274 25.9536ZM31.6706 31.9937C31.2807 32.6472 30.4473 32.8521 29.81 32.4538C24.7111 29.2703 18.2935 28.5511 10.7355 30.3149C10.0071 30.4855 9.28128 30.0191 9.11508 29.2753C8.94829 28.5312 9.40293 27.7899 10.133 27.6201C18.4039 25.6884 25.4987 26.5198 31.2218 30.0925C31.8599 30.4905 32.0608 31.3421 31.6706 31.9937ZM21.7129 1.90735e-05C9.72146 1.90735e-05 0 9.93079 0 22.1812C0 34.4327 9.72146 44.3632 21.7129 44.3632C33.7049 44.3632 43.4258 34.4327 43.4258 22.1812C43.4258 9.93079 33.7049 1.90735e-05 21.7129 1.90735e-05Z" fill="#1ED760"/>
<path d="M59.0732 20.4775C55.3243 19.5642 54.6567 18.9231 54.6567 17.5766C54.6567 16.3038 55.8296 15.4477 57.5736 15.4477C59.2641 15.4477 60.94 16.098 62.6977 17.4367C62.7508 17.4772 62.8175 17.4934 62.8831 17.4828C62.9487 17.4727 63.0065 17.4362 63.0451 17.3805L64.8756 14.7445C64.9508 14.6362 64.9303 14.4862 64.829 14.4033C62.7374 12.6888 60.3821 11.8552 57.629 11.8552C53.5812 11.8552 50.7537 14.3366 50.7537 17.8875C50.7537 21.6952 53.1928 23.0433 57.4076 24.084C60.995 24.9282 61.6004 25.6353 61.6004 26.8998C61.6004 28.3006 60.3761 29.1716 58.4058 29.1716C56.2178 29.1716 54.4326 28.4186 52.4359 26.652C52.3864 26.6086 52.3185 26.5885 52.2557 26.5921C52.1899 26.5977 52.1295 26.629 52.0875 26.6806L50.035 29.176C49.9489 29.2796 49.9598 29.4343 50.0591 29.5238C52.3825 31.6426 55.2395 32.7619 58.3229 32.7619C62.6847 32.7619 65.5033 30.3269 65.5033 26.5585C65.5033 23.3737 63.6407 21.6124 59.0732 20.4775Z" fill="#1ED760"/>
<path d="M78.5383 24.746C78.5383 27.4353 76.9167 29.3119 74.5949 29.3119C72.2995 29.3119 70.568 27.35 70.568 24.746C70.568 22.1423 72.2995 20.1801 74.5949 20.1801C76.8794 20.1801 78.5383 22.0999 78.5383 24.746ZM75.3719 16.7003C73.4813 16.7003 71.9305 17.4611 70.6518 19.0199V17.2653C70.6518 17.1268 70.5418 17.014 70.4062 17.014H67.0496C66.914 17.014 66.8043 17.1268 66.8043 17.2653V36.7608C66.8043 36.8994 66.914 37.0121 67.0496 37.0121H70.4062C70.5418 37.0121 70.6518 36.8994 70.6518 36.7608V30.6072C71.9308 32.0735 73.4818 32.7897 75.3719 32.7897C78.8849 32.7897 82.4412 30.027 82.4412 24.746C82.4412 19.4637 78.8849 16.7003 75.3719 16.7003Z" fill="#1ED760"/>
<path d="M91.5569 29.34C89.1505 29.34 87.3363 27.3648 87.3363 24.746C87.3363 22.1161 89.0877 20.2077 91.5014 20.2077C93.9233 20.2077 95.7497 22.1828 95.7497 24.8034C95.7497 27.4329 93.9863 29.34 91.5569 29.34ZM91.5569 16.7004C87.0327 16.7004 83.4883 20.2593 83.4883 24.8034C83.4883 29.2981 87.0083 32.8198 91.5014 32.8198C96.0416 32.8198 99.5968 29.2728 99.5968 24.746C99.5968 20.2344 96.066 16.7004 91.5569 16.7004Z" fill="#1ED760"/>
<path d="M109.258 17.0139H105.564V13.1557C105.564 13.0172 105.455 12.9046 105.319 12.9046H101.963C101.827 12.9046 101.716 13.0172 101.716 13.1557V17.0139H100.102C99.9671 17.0139 99.858 17.1267 99.858 17.2653V20.2125C99.858 20.3509 99.9671 20.4637 100.102 20.4637H101.716V28.09C101.716 31.1719 103.218 32.7343 106.179 32.7343C107.383 32.7343 108.382 32.4803 109.324 31.9349C109.4 31.8913 109.448 31.807 109.448 31.7175V28.9109C109.448 28.8242 109.404 28.7426 109.331 28.6971C109.258 28.6503 109.167 28.6479 109.092 28.6857C108.446 29.0181 107.82 29.1715 107.122 29.1715C106.045 29.1715 105.564 28.6722 105.564 27.5526V20.4637H109.258C109.394 20.4637 109.503 20.3509 109.503 20.2125V17.2653C109.503 17.1267 109.394 17.0139 109.258 17.0139Z" fill="#1ED760"/>
<path d="M122.128 17.0289V16.5551C122.128 15.161 122.651 14.5393 123.825 14.5393C124.524 14.5393 125.087 14.6813 125.716 14.8959C125.794 14.9208 125.875 14.9083 125.938 14.8609C126.002 14.8135 126.039 14.7375 126.039 14.657V11.7671C126.039 11.6567 125.969 11.559 125.865 11.5266C125.2 11.3245 124.349 11.1169 123.075 11.1169C119.975 11.1169 118.336 12.9006 118.336 16.2732V16.999H116.723C116.588 16.999 116.477 17.1116 116.477 17.2501V20.2124C116.477 20.3509 116.588 20.4636 116.723 20.4636H118.336V32.2267C118.336 32.3653 118.445 32.4779 118.581 32.4779H121.937C122.073 32.4779 122.183 32.3653 122.183 32.2267V20.4636H125.318L130.119 32.2236C129.574 33.4592 129.038 33.7051 128.306 33.7051C127.715 33.7051 127.092 33.5246 126.455 33.1687C126.395 33.135 126.324 33.1295 126.26 33.1499C126.196 33.1732 126.142 33.2217 126.114 33.2855L124.977 35.8355C124.922 35.9559 124.969 36.0975 125.082 36.16C126.27 36.8171 127.342 37.0976 128.667 37.0976C131.146 37.0976 132.516 35.9179 133.724 32.7446L139.548 17.3711C139.577 17.2938 139.568 17.2067 139.522 17.1378C139.476 17.07 139.401 17.0289 139.32 17.0289H135.825C135.721 17.0289 135.627 17.0967 135.593 17.1971L132.013 27.6433L128.092 17.1902C128.056 17.093 127.964 17.0289 127.862 17.0289H122.128Z" fill="#1ED760"/>
<path d="M114.667 17.0139H111.31C111.174 17.0139 111.064 17.1268 111.064 17.2653V32.2268C111.064 32.3654 111.174 32.478 111.31 32.478H114.667C114.802 32.478 114.913 32.3654 114.913 32.2268V17.2653C114.913 17.1268 114.802 17.0139 114.667 17.0139Z" fill="#1ED760"/>
<path d="M113.006 10.2015C111.676 10.2015 110.597 11.3016 110.597 12.6599C110.597 14.0192 111.676 15.1203 113.006 15.1203C114.335 15.1203 115.413 14.0192 115.413 12.6599C115.413 11.3016 114.335 10.2015 113.006 10.2015Z" fill="#1ED760"/>
</svg>
