<svg width="177" height="169" viewBox="0 0 177 169" fill="none" xmlns="http://www.w3.org/2000/svg">
<g filter="url(#filter0_d_1_122)">
<path fill-rule="evenodd" clip-rule="evenodd" d="M65.3 5.30005C48.7315 5.30005 35.3 18.7315 35.3 35.3001V73.4158C35.3 89.9844 48.7315 103.416 65.3001 103.416H111.221C127.789 103.416 141.221 89.9844 141.221 73.4158V35.3C141.221 18.7315 127.789 5.30005 111.22 5.30005H65.3ZM121.14 21.3H109.873L91.3422 42.6476L75.1833 21.3H51.7603L79.6306 57.7688L53.2427 88.0111H64.5095L84.9675 64.7364L102.757 88.0111H125.587L96.5308 49.6152L121.14 21.3ZM112.097 81.1918H105.87L64.9542 27.6747H71.7736L112.097 81.1918Z" fill="#1181F1"/>
</g>
<defs>
<filter id="filter0_d_1_122" x="4.95911e-05" y="4.95911e-05" width="176.52" height="168.716" filterUnits="userSpaceOnUse" color-interpolation-filters="sRGB">
<feFlood flood-opacity="0" result="BackgroundImageFix"/>
<feColorMatrix in="SourceAlpha" type="matrix" values="0 0 0 0 0 0 0 0 0 0 0 0 0 0 0 0 0 0 127 0" result="hardAlpha"/>
<feOffset dy="30"/>
<feGaussianBlur stdDeviation="17.65"/>
<feComposite in2="hardAlpha" operator="out"/>
<feColorMatrix type="matrix" values="0 0 0 0 0.254583 0 0 0 0 0.452292 0 0 0 0 0.65 0 0 0 0.15 0"/>
<feBlend mode="normal" in2="BackgroundImageFix" result="effect1_dropShadow_1_122"/>
<feBlend mode="normal" in="SourceGraphic" in2="effect1_dropShadow_1_122" result="shape"/>
</filter>
</defs>
</svg>
