<svg width="106" height="99" viewBox="0 0 106 99" fill="none" xmlns="http://www.w3.org/2000/svg">
<path fill-rule="evenodd" clip-rule="evenodd" d="M30 0C13.4315 0 0 13.4315 0 30V68.1158C0 84.6843 13.4315 98.1158 30 98.1158H75.9205C92.489 98.1158 105.92 84.6843 105.92 68.1158V30C105.92 13.4315 92.489 0 75.9204 0H30ZM85.8397 16H74.573L56.0421 37.3475L39.8832 16H16.4602L44.3306 52.4687L17.9427 82.7111H29.2094L49.6675 59.4363L67.4571 82.7111H90.2871L61.2307 44.3151L85.8397 16ZM76.7967 75.8917H70.5703L29.6542 22.3746H36.4735L76.7967 75.8917Z" fill="#1ED760"/>
</svg>
